<svg xmlns="http://www.w3.org/2000/svg" viewBox="0 0 80 90" xml:space="preserve"><path d="M65.074 33.294c-2.047-6.614-8.216-11.19-15.059-11.059a11.834 11.834 0 0 0-.228-.002c-6.76 0-12.837 4.52-14.861 11.061-1.337 4.32-.847 8.831 1.38 12.702 2.211 3.845 5.832 6.517 10.194 7.523.71.164 1.449.244 2.23.33.35.037.7.075 1.047.121l.19-.006.256.006c.347-.046.697-.084 1.047-.122.78-.085 1.52-.165 2.23-.329 4.362-1.006 7.982-3.678 10.195-7.523 2.226-3.87 2.716-8.382 1.38-12.701z"/><path d="M73.42 36.414c-.136-.45-.199-.93-.496-1.325-.147-.195-.256-.418-.4-.615-.31-.421-.632-.831-.943-1.25-.23-.31-.41-.65-.558-1.004-.227-.545-.36-1.123-.592-1.666-.183-.428-.343-.865-.539-1.287-.24-.518-.503-1.026-.762-1.535-.1-.196-.209-.387-.32-.577-.109-.182-.19-.38-.308-.557-.145-.22-.273-.453-.426-.668-.388-.549-.784-1.092-1.181-1.635-.383-.523-.837-.984-1.291-1.444-.225-.228-.46-.445-.687-.672a13.89 13.89 0 0 0-1.532-1.31c-.156-.117-.321-.22-.479-.334-.27-.194-.527-.406-.806-.585a20.658 20.658 0 0 0-1.132-.669 23.95 23.95 0 0 0-1.232-.646 23.815 23.815 0 0 0-1.493-.67c-.593-.236-1.199-.442-1.801-.655a9.782 9.782 0 0 0-.684-.21c-.233-.064-.453-.163-.697-.205-.45-.077-.892-.21-1.342-.294-.207-.039-.401-.126-.622-.125-.25 0-.5-.052-.748-.088-.116-.017-.228-.063-.343-.072-.167-.015-.336-.003-.504-.012-.428-.02-.855-.066-1.283-.066-.49 0-.981.037-1.472.056a10.01 10.01 0 0 0-1.186.104c-.255.04-.515.11-.78.06-.02-.004-.044.018-.067.028-.04.016-.078.04-.119.048-.38.081-.763.154-1.143.24-.285.064-.572.118-.85.211-.357.12-.72.221-1.078.336-.25.08-.498.166-.746.255-.183.065-.364.137-.545.209-.39.154-.787.297-1.17.468-.419.186-.825.397-1.235.6a27.891 27.891 0 0 0-1.137.625c-.28.166-.565.324-.836.505-.27.18-.516.4-.79.573-.37.233-.701.51-1.042.78-.534.421-1.009.908-1.498 1.378-.275.264-.531.55-.785.836-.278.315-.555.633-.812.966-.261.338-.5.694-.744 1.045-.147.211-.294.423-.427.644-.128.214-.285.407-.39.637-.108.233-.255.448-.376.675-.22.41-.442.818-.645 1.236-.194.401-.375.81-.545 1.223-.183.44-.364.881-.504 1.34-.107.354-.243.7-.383 1.043-.232.564-.617 1.033-.975 1.518-.212.289-.425.576-.636.866-.066.091-.122.19-.184.284-.12.18-.256.353-.3.574a2.17 2.17 0 0 1-.086.308 7.212 7.212 0 0 0-.372 1.73c-.08.798.033 2.01.392 2.851.129.3.258.601.4.895.313.653.781 1.198 1.236 1.752.372.454.684.945.945 1.47.036.073.07.148.1.224.087.208.175.416.255.627.094.247.17.5.272.744.118.284.255.56.383.84.251.555.522 1.1.83 1.626.3.516.62 1.019.976 1.498.262.354.528.706.797 1.055.697.902 1.392 1.807 2.242 2.575.378.342.755.687 1.16.996.59.451 1.2.876 1.809 1.301a16.788 16.788 0 0 0 2.814 1.575c.672.3 1.36.565 2.042.838.761.305 1.504.644 2.195 1.09.783.503 1.424 1.138 1.85 1.975.323.635.53 1.305.588 2.016.02.25.012.504.042.753.053.443-.012.88-.024 1.32-.013.446-.059.89-.093 1.335-.03.376-.057.753-.097 1.128-.064.612-.137 1.224-.205 1.836-.082.737-.159 1.475-.244 2.212-.118 1.03-.25 2.059-.36 3.09-.06.568-.093 1.14-.127 1.711-.03.484-.05.968-.062 1.452-.006.232.015.465.02.698.014.537.086 1.07.226 1.585.238.873.64 1.661 1.344 2.27.519.448 1.12.686 1.79.775.287.038.562-.04.836-.11.702-.182 1.265-.587 1.708-1.146.479-.605.79-1.296.937-2.058.118-.614.196-1.23.184-1.856-.008-.365-.02-.73-.038-1.095-.024-.502-.045-1.005-.087-1.506a63.806 63.806 0 0 0-.185-1.857c-.1-.894-.211-1.786-.315-2.678-.088-.756-.175-1.511-.258-2.267-.045-.412-.081-.826-.12-1.239-.045-.469-.096-.937-.13-1.407-.035-.502-.056-1.005-.078-1.507a8.42 8.42 0 0 1 .098-1.843c.245-1.389.901-2.523 2.052-3.358.734-.533 1.544-.922 2.38-1.258.905-.364 1.821-.7 2.696-1.136a19.875 19.875 0 0 0 2.334-1.352c.802-.546 1.597-1.1 2.334-1.735.487-.42.957-.857 1.39-1.332.707-.78 1.333-1.626 1.973-2.46.15-.194.3-.388.44-.59.155-.22.3-.449.445-.677.168-.264.345-.524.494-.8.182-.334.334-.686.51-1.025.293-.564.556-1.14.77-1.739.106-.295.208-.593.336-.878.14-.314.3-.618.484-.912.241-.386.526-.736.8-1.096.186-.244.39-.476.57-.726.31-.43.534-.91.753-1.393.072-.16.15-.319.2-.486.058-.192.083-.393.131-.588.12-.486.16-.98.161-1.478a5.75 5.75 0 0 0-.242-1.75zM51.172 78.638c-.018.071-.002.15-.005.226-.01.251-.003.504-.037.752-.02.151-.104.294-.162.44-.024.058-.066.11-.082.17-.085.312-.324.487-.577.645a.557.557 0 0 1-.61.003c-.26-.159-.503-.339-.587-.66-.02-.077-.073-.146-.106-.22-.085-.19-.163-.377-.152-.596.009-.173-.027-.349-.043-.523l.037-.005c-.023-.16-.043-.322-.07-.483-.014-.093-.037-.182-.002-.278a.426.426 0 0 0 .015-.168c-.025-.438.074-.862.154-1.287.007-.037.02-.074.02-.111.002-.495.1-.976.21-1.454.07-.304.184-.599.278-.898.014-.042.036-.083.041-.125.029-.243.156-.45.233-.676.009-.026.037-.045.056-.068.037-.046.083-.088.11-.14.026-.052.056-.08.115-.076.058.003.093.028.1.09.003.023.01.055.027.067.22.153.248.407.33.63.07.189.13.38.182.574.093.339.198.676.261 1.02.062.34.13.68.136 1.028.004.174.053.347.084.52.051.29.079.581.086.878.006.245.019.484-.042.725zM65.43 46.993c-2.492 4.333-6.57 7.343-11.48 8.475-.826.19-1.659.28-2.464.369-.36.039-.721.078-1.08.127l-.077.01-.36-.012-.296.011-.078-.01c-.358-.048-.719-.087-1.08-.126-.804-.088-1.638-.178-2.463-.369-4.91-1.132-8.987-4.142-11.48-8.475-2.506-4.358-3.059-9.433-1.555-14.29 2.307-7.457 9.337-12.553 17-12.468 7.644-.09 14.66 5.01 16.968 12.468 1.504 4.857.952 9.932-1.555 14.29z"/></svg>